<svg xmlns="http://www.w3.org/2000/svg" viewBox="0 0 1200 800">
  <defs>
    <linearGradient id="bg" x1="0" x2="1" y1="0" y2="1">
      <stop offset="0" stop-color="#0c2115"/>
      <stop offset="0.5" stop-color="#233d2b"/>
      <stop offset="1" stop-color="#c8a756"/>
    </linearGradient>
    <radialGradient id="glow" cx="35%" cy="25%" r="60%">
      <stop offset="0" stop-color="#fffaf0" stop-opacity="0.55"/>
      <stop offset="1" stop-color="#fffaf0" stop-opacity="0"/>
    </radialGradient>
    <filter id="shadow" x="-20%" y="-20%" width="140%" height="140%">
      <feDropShadow dx="0" dy="20" stdDeviation="20" flood-color="#000" flood-opacity="0.28"/>
    </filter>
  </defs>
  <rect width="1200" height="800" fill="url(#bg)"/>
  <rect width="1200" height="800" fill="url(#glow)"/>
  <g opacity="0.22" stroke="#e5d39a" stroke-width="2" fill="none">
    <path d="M120 190 C300 80 520 110 690 250 S960 420 1110 270"/>
    <path d="M60 630 C250 500 470 540 640 640 S920 740 1120 560"/>
  </g>
  <g filter="url(#shadow)">
    <ellipse cx="420" cy="440" rx="150" ry="255" fill="#8f4e2e" transform="rotate(-19 420 440)"/>
    <ellipse cx="420" cy="440" rx="108" ry="220" fill="#a96537" transform="rotate(-19 420 440)" opacity="0.9"/>
    <path d="M315 250 C400 330 430 480 468 646" stroke="#3a2218" stroke-width="18" fill="none" opacity="0.55"/>
    <path d="M375 225 C430 350 450 500 520 620" stroke="#3a2218" stroke-width="14" fill="none" opacity="0.4"/>
    <path d="M470 245 C475 360 465 520 455 660" stroke="#3a2218" stroke-width="10" fill="none" opacity="0.35"/>
  </g>
  <g filter="url(#shadow)">
    <ellipse cx="755" cy="455" rx="155" ry="255" fill="#d19a43" transform="rotate(16 755 455)"/>
    <ellipse cx="755" cy="455" rx="108" ry="218" fill="#e5b85d" transform="rotate(16 755 455)" opacity="0.92"/>
    <path d="M705 250 C720 370 735 510 777 660" stroke="#5a351f" stroke-width="17" fill="none" opacity="0.42"/>
    <path d="M760 230 C775 360 780 520 840 650" stroke="#5a351f" stroke-width="14" fill="none" opacity="0.36"/>
    <path d="M650 310 C720 390 750 530 790 685" stroke="#5a351f" stroke-width="10" fill="none" opacity="0.32"/>
  </g>
  <g fill="#fffaf0" opacity="0.92">
    <circle cx="565" cy="505" r="34"/>
    <circle cx="620" cy="535" r="30"/>
    <circle cx="585" cy="585" r="28"/>
    <circle cx="650" cy="600" r="32"/>
  </g>
  <text x="86" y="102" font-family="Georgia, serif" font-size="64" fill="#e5d39a" letter-spacing="8">DOUXELL</text>
</svg>
