<svg xmlns="http://www.w3.org/2000/svg" viewBox="0 0 1200 800">
  <defs>
    <linearGradient id="bg" x1="0" x2="1" y1="0" y2="1">
      <stop offset="0" stop-color="#f4ecdc"/>
      <stop offset="0.48" stop-color="#fffaf0"/>
      <stop offset="1" stop-color="#233d2b"/>
    </linearGradient>
    <filter id="shadow" x="-20%" y="-20%" width="140%" height="140%">
      <feDropShadow dx="0" dy="18" stdDeviation="18" flood-color="#000" flood-opacity="0.18"/>
    </filter>
  </defs>
  <rect width="1200" height="800" fill="url(#bg)"/>
  <g filter="url(#shadow)">
    <rect x="290" y="140" width="620" height="460" rx="46" fill="#fffaf0"/>
    <rect x="290" y="140" width="620" height="110" rx="46" fill="#233d2b"/>
    <rect x="290" y="215" width="620" height="36" fill="#c8a756"/>
    <text x="410" y="205" font-family="Georgia, serif" font-size="62" fill="#e5d39a" letter-spacing="10">DOUXELL</text>
    <text x="410" y="355" font-family="Arial, sans-serif" font-size="76" font-weight="800" fill="#4a2d1d">CHIPS</text>
    <text x="410" y="415" font-family="Arial, sans-serif" font-size="32" font-weight="700" fill="#233d2b" letter-spacing="5">CHOCOLATE · 250 G</text>
  </g>
  <g fill="#4a2d1d" opacity="0.95">
    <circle cx="175" cy="610" r="34"/>
    <circle cx="230" cy="520" r="26"/>
    <circle cx="260" cy="665" r="20"/>
    <circle cx="960" cy="620" r="32"/>
    <circle cx="1018" cy="520" r="24"/>
    <circle cx="1040" cy="675" r="18"/>
  </g>
  <g stroke="#c8a756" stroke-width="3" fill="none" opacity="0.45">
    <path d="M90 210 C230 130 390 150 530 230"/>
    <path d="M710 610 C820 520 980 510 1110 570"/>
  </g>
</svg>
