<svg xmlns="http://www.w3.org/2000/svg" viewBox="0 0 1200 800">
  <defs>
    <linearGradient id="bg" x1="0" x2="1" y1="0" y2="1">
      <stop offset="0" stop-color="#fffaf0"/>
      <stop offset="0.42" stop-color="#c8a756"/>
      <stop offset="1" stop-color="#4a2d1d"/>
    </linearGradient>
    <filter id="shadow" x="-20%" y="-20%" width="140%" height="140%">
      <feDropShadow dx="0" dy="22" stdDeviation="22" flood-color="#000" flood-opacity="0.25"/>
    </filter>
  </defs>
  <rect width="1200" height="800" fill="url(#bg)"/>
  <circle cx="1020" cy="120" r="210" fill="#233d2b" opacity="0.22"/>
  <circle cx="140" cy="700" r="250" fill="#0c2115" opacity="0.16"/>
  <g filter="url(#shadow)">
    <rect x="250" y="190" width="650" height="390" rx="40" fill="#3b2118"/>
    <g stroke="#c8a756" stroke-width="5" opacity="0.5">
      <path d="M250 320 H900"/>
      <path d="M250 450 H900"/>
      <path d="M412 190 V580"/>
      <path d="M575 190 V580"/>
      <path d="M738 190 V580"/>
    </g>
    <rect x="285" y="225" width="120" height="75" rx="18" fill="#5b3122"/>
    <rect x="448" y="355" width="120" height="75" rx="18" fill="#5b3122"/>
    <rect x="612" y="225" width="120" height="75" rx="18" fill="#5b3122"/>
    <rect x="775" y="355" width="90" height="75" rx="18" fill="#5b3122"/>
  </g>
  <g fill="#e5d39a" opacity="0.95">
    <circle cx="245" cy="615" r="26"/>
    <circle cx="300" cy="648" r="18"/>
    <circle cx="865" cy="640" r="24"/>
    <circle cx="925" cy="615" r="17"/>
  </g>
  <text x="96" y="112" font-family="Georgia, serif" font-size="60" fill="#0c2115" letter-spacing="8">CHOCOLATE</text>
</svg>
