<svg xmlns="http://www.w3.org/2000/svg" viewBox="0 0 900 900">
  <defs>
    <linearGradient id="bg" x1="0" y1="0" x2="1" y2="1">
      <stop offset="0" stop-color="#fffaf0"/>
      <stop offset="0.42" stop-color="#e5d39a"/>
      <stop offset="1" stop-color="#233d2b"/>
    </linearGradient>
    <radialGradient id="light" cx="35%" cy="25%" r="60%">
      <stop offset="0" stop-color="#fffaf0" stop-opacity="0.8"/>
      <stop offset="1" stop-color="#fffaf0" stop-opacity="0"/>
    </radialGradient>
    <filter id="shadow" x="-30%" y="-30%" width="160%" height="160%">
      <feDropShadow dx="0" dy="18" stdDeviation="18" flood-color="#000" flood-opacity="0.24"/>
    </filter>
  </defs>
  <rect width="900" height="900" fill="url(#bg)"/>
  <rect width="900" height="900" fill="url(#light)"/>
  <g opacity="0.26" stroke="#0c2115" stroke-width="4" fill="none">
    <path d="M95 200 C240 110 420 130 560 250 S760 390 845 260"/>
    <path d="M80 740 C240 620 410 650 565 730 S770 810 860 690"/>
  </g>
  <g filter="url(#shadow)">
    <ellipse cx="365" cy="475" rx="118" ry="220" fill="#8d4c2e" transform="rotate(-16 365 475)"/>
    <ellipse cx="365" cy="475" rx="78" ry="188" fill="#ad6937" transform="rotate(-16 365 475)" opacity="0.92"/>
    <path d="M300 275 C352 370 382 505 420 665" stroke="#3a2218" stroke-width="14" fill="none" opacity="0.42"/>
    <path d="M370 265 C385 385 398 520 455 640" stroke="#3a2218" stroke-width="10" fill="none" opacity="0.34"/>
  </g>
  <g filter="url(#shadow)">
    <rect x="470" y="270" width="245" height="335" rx="26" fill="#fffaf0"/>
    <rect x="470" y="270" width="245" height="75" rx="26" fill="#0c2115"/>
    <rect x="470" y="330" width="245" height="18" fill="#c8a756"/>
    <text x="514" y="320" font-family="Georgia, serif" font-size="34" fill="#e5d39a" letter-spacing="5">DOUXELL</text>
    <text x="525" y="445" font-family="Montserrat, Arial" font-size="42" font-weight="800" fill="#4a2d1d">CACAO</text>
    <text x="532" y="492" font-family="Montserrat, Arial" font-size="22" font-weight="700" fill="#233d2b" letter-spacing="3">NATURAL 250 G</text>
  </g>
  <image href="colombia-badge.svg" x="505" y="642" width="280" height="113"/>
</svg>