<svg xmlns="http://www.w3.org/2000/svg" viewBox="0 0 64 64" role="img" aria-label="WhatsApp">
  <path fill="#25D366" d="M32 6C18.2 6 7 16.7 7 30c0 4.5 1.3 8.7 3.6 12.3L8 58l16.2-4.1c2.5.8 5.1 1.1 7.8 1.1 13.8 0 25-10.7 25-24S45.8 6 32 6Z"/>
  <path fill="#FFFFFF" d="M44.7 37.6c-.7 2-3.6 3.8-5.1 4-1.4.2-3.2.3-9.2-2.2-7.7-3.2-12.7-11-13.1-11.5-.4-.5-3.1-4.1-3.1-7.8s2-5.6 2.7-6.4c.7-.8 1.5-1 2-1h1.5c.5 0 1.1 0 1.7 1.3.7 1.6 2.3 5.5 2.5 5.9.2.4.3.9.1 1.4-.3.5-.4.8-.8 1.3-.4.4-.8 1-1.2 1.3-.4.4-.8.8-.3 1.6.5.8 2.1 3.4 4.5 5.5 3.1 2.8 5.7 3.6 6.5 4 .8.4 1.3.3 1.8-.2.5-.6 2.1-2.4 2.6-3.2.5-.8 1.1-.7 1.8-.4.8.3 4.8 2.3 5.6 2.7.8.4 1.4.6 1.6.9.2.3.2 1.7-.5 3.8Z"/>
</svg>
